<svg xmlns="http://www.w3.org/2000/svg" xmlns:xlink="http://www.w3.org/1999/xlink" version="1.1" width="256" height="256" viewBox="0 0 256 256" xml:space="preserve">

<defs>
</defs>
<g style="stroke: none; stroke-width: 0; stroke-dasharray: none; stroke-linecap: butt; stroke-linejoin: miter; stroke-miterlimit: 10; fill: none; fill-rule: nonzero; opacity: 1;" transform="translate(1.4065934065934016 1.4065934065934016) scale(2.81 2.81)" >
	<circle cx="45" cy="45" r="45" style="stroke: none; stroke-width: 1; stroke-dasharray: none; stroke-linecap: butt; stroke-linejoin: miter; stroke-miterlimit: 10; fill: rgb(252,219,84); fill-rule: nonzero; opacity: 1;" transform="  matrix(1 0 0 1 0 0) "/>
	<path d="M 20.568 52.701 c -1.104 0 -2 -0.896 -2 -2 V 39.299 c 0 -1.104 0.896 -2 2 -2 s 2 0.896 2 2 v 11.402 C 22.568 51.806 21.673 52.701 20.568 52.701 z" style="stroke: none; stroke-width: 1; stroke-dasharray: none; stroke-linecap: butt; stroke-linejoin: miter; stroke-miterlimit: 10; fill: rgb(255,255,255); fill-rule: nonzero; opacity: 1;" transform=" matrix(1 0 0 1 0 0) " stroke-linecap="round" />
	<path d="M 28.712 64.917 c -1.104 0 -2 -0.896 -2 -2 V 27.083 c 0 -1.104 0.896 -2 2 -2 s 2 0.896 2 2 v 35.833 C 30.712 64.021 29.816 64.917 28.712 64.917 z" style="stroke: none; stroke-width: 1; stroke-dasharray: none; stroke-linecap: butt; stroke-linejoin: miter; stroke-miterlimit: 10; fill: rgb(255,255,255); fill-rule: nonzero; opacity: 1;" transform=" matrix(1 0 0 1 0 0) " stroke-linecap="round" />
	<path d="M 36.856 77.133 c -1.104 0 -2 -0.896 -2 -2 V 14.867 c 0 -1.104 0.896 -2 2 -2 s 2 0.896 2 2 v 60.266 C 38.856 76.237 37.96 77.133 36.856 77.133 z" style="stroke: none; stroke-width: 1; stroke-dasharray: none; stroke-linecap: butt; stroke-linejoin: miter; stroke-miterlimit: 10; fill: rgb(255,255,255); fill-rule: nonzero; opacity: 1;" transform=" matrix(1 0 0 1 0 0) " stroke-linecap="round" />
	<path d="M 45 64.917 c -1.104 0 -2 -0.896 -2 -2 V 27.083 c 0 -1.104 0.896 -2 2 -2 s 2 0.896 2 2 v 35.833 C 47 64.021 46.104 64.917 45 64.917 z" style="stroke: none; stroke-width: 1; stroke-dasharray: none; stroke-linecap: butt; stroke-linejoin: miter; stroke-miterlimit: 10; fill: rgb(255,255,255); fill-rule: nonzero; opacity: 1;" transform=" matrix(1 0 0 1 0 0) " stroke-linecap="round" />
	<path d="M 53.144 52.701 c -1.104 0 -2 -0.896 -2 -2 V 39.299 c 0 -1.104 0.896 -2 2 -2 s 2 0.896 2 2 v 11.402 C 55.144 51.806 54.248 52.701 53.144 52.701 z" style="stroke: none; stroke-width: 1; stroke-dasharray: none; stroke-linecap: butt; stroke-linejoin: miter; stroke-miterlimit: 10; fill: rgb(255,255,255); fill-rule: nonzero; opacity: 1;" transform=" matrix(1 0 0 1 0 0) " stroke-linecap="round" />
	<path d="M 61.288 64.917 c -1.104 0 -2 -0.896 -2 -2 V 27.083 c 0 -1.104 0.896 -2 2 -2 s 2 0.896 2 2 v 35.833 C 63.288 64.021 62.393 64.917 61.288 64.917 z" style="stroke: none; stroke-width: 1; stroke-dasharray: none; stroke-linecap: butt; stroke-linejoin: miter; stroke-miterlimit: 10; fill: rgb(255,255,255); fill-rule: nonzero; opacity: 1;" transform=" matrix(1 0 0 1 0 0) " stroke-linecap="round" />
	<path d="M 69.432 52.701 c -1.104 0 -2 -0.896 -2 -2 V 39.299 c 0 -1.104 0.896 -2 2 -2 s 2 0.896 2 2 v 11.402 C 71.432 51.806 70.536 52.701 69.432 52.701 z" style="stroke: none; stroke-width: 1; stroke-dasharray: none; stroke-linecap: butt; stroke-linejoin: miter; stroke-miterlimit: 10; fill: rgb(255,255,255); fill-rule: nonzero; opacity: 1;" transform=" matrix(1 0 0 1 0 0) " stroke-linecap="round" />
</g>
</svg>